<svg width="23" height="22" viewBox="0 0 23 22" fill="none" xmlns="http://www.w3.org/2000/svg">
<path fill-rule="evenodd" clip-rule="evenodd" d="M4.16668 1.04067C4.81748 0.420866 5.68176 0.0751546 6.58047 0.0751546H13.1352C15.0682 0.0751546 16.6352 1.64216 16.6352 3.57515V4.23893C16.5712 4.23721 16.5068 4.23635 16.4423 4.23635C16.1694 4.23635 15.9001 4.25176 15.6352 4.28176V3.57515C15.6352 2.19444 14.516 1.07515 13.1352 1.07515H6.58047C6.24384 1.07515 5.91396 1.14306 5.6093 1.2715V2.6093C5.6093 4.26616 4.26615 5.6093 2.6093 5.6093H1.21627C1.12376 5.8728 1.07515 6.15249 1.07515 6.43737V18.1694C1.07515 19.5501 2.19444 20.6694 3.57515 20.6694H5.97263L6.97263 21.6694H3.57515C1.64215 21.6694 0.0751495 20.1024 0.0751495 18.1694V6.43737C0.0751495 5.4795 0.467727 4.56348 1.16136 3.90289L4.16668 1.04067ZM11.1567 6.59897C10.8025 6.99439 10.4921 7.42978 10.233 7.89755H8.3552C8.3552 7.16692 8.97585 6.53626 9.87338 6.24266C10.1577 6.47605 10.5215 6.61613 10.918 6.61613C10.9991 6.61613 11.0788 6.61028 11.1567 6.59897ZM9.44054 10.1858C9.38015 10.5583 9.34875 10.9404 9.34875 11.3299C9.34875 11.4065 9.34997 11.4828 9.35237 11.5588H2.40575V10.1858H9.44054ZM12.1006 11.5588C12.0966 11.483 12.0947 11.4067 12.0947 11.3299C12.0947 10.934 12.1476 10.5504 12.2468 10.1858H13.847V11.5588H12.1006ZM9.65232 13.3894H2.40575V14.7623H10.233C9.99365 14.3303 9.7981 13.8706 9.65232 13.3894ZM13.7735 14.7623C13.2975 14.3916 12.9006 13.9241 12.6124 13.3894H13.847V14.7623H13.7735ZM15.6352 15.6028V7.05702C15.8968 7.00793 16.1666 6.98225 16.4423 6.98225C16.507 6.98225 16.5713 6.98366 16.6352 6.98645V15.6734C16.5713 15.6762 16.507 15.6776 16.4423 15.6776C16.1666 15.6776 15.8968 15.6519 15.6352 15.6028ZM15.6267 18.3771C15.5212 19.6607 14.446 20.6694 13.1352 20.6694H9.81016L8.81016 21.6694H13.1352C14.9836 21.6694 16.4973 20.2366 16.6263 18.4212C16.5652 18.4227 16.5038 18.4235 16.4423 18.4235C16.1665 18.4235 15.8944 18.4078 15.6267 18.3771ZM2.40575 16.5929H8.40719L7.03424 17.9659H2.40575V16.5929ZM12.3825 4.78553C12.3825 5.59434 11.7268 6.25001 10.918 6.25001C10.1092 6.25001 9.45355 5.59434 9.45355 4.78553C9.45355 3.97672 10.1092 3.32105 10.918 3.32105C11.7268 3.32105 12.3825 3.97672 12.3825 4.78553Z" fill="white"/>
<path fill-rule="evenodd" clip-rule="evenodd" d="M9.96686 11.2106C9.96686 14.8096 12.8844 17.7271 16.4834 17.7271C20.0824 17.7271 23 14.8096 23 11.2106C23 7.61157 20.0824 4.694 16.4834 4.694C12.8844 4.694 9.96686 7.61157 9.96686 11.2106ZM11.7645 11.2106C11.7645 13.8167 13.8773 15.9295 16.4834 15.9295C19.0896 15.9295 21.2023 13.8167 21.2023 11.2106C21.2023 8.6044 19.0896 6.49168 16.4834 6.49168C13.8773 6.49168 11.7645 8.6044 11.7645 11.2106Z" fill="white"/>
<path d="M12.1049 13.6824L14.0116 15.5891L8.92705 20.6737C8.40052 21.2002 7.54685 21.2002 7.02033 20.6737V20.6737C6.4938 20.1472 6.4938 19.2935 7.02033 18.767L12.1049 13.6824Z" fill="white"/>
</svg>
