<svg width="125" height="125" viewBox="0 0 125 125" fill="none" xmlns="http://www.w3.org/2000/svg">
<path fill-rule="evenodd" clip-rule="evenodd" d="M5 0C2.23853 0 0 2.23853 0 5V120C0 122.761 2.23853 125 5 125H120C122.761 125 125 122.761 125 120V30C125 13.4314 111.569 0 95 0H5ZM31.7944 106.865L25 31.3177H99.6597L92.8577 107.019L62.2837 115L31.7944 106.865ZM85.1011 53.4186L85.5271 48.517L85.7505 46.4409H38.9326L39.157 49.0992L41.4541 75.0068H73.8469L72.7581 86.5408L62.3298 88.7664L62.3247 88.9529L51.9192 86.3156L51.2546 79.2078H41.8716L43.1704 93.5369L62.3071 98.5073L62.3298 98.4973V98.5015L81.4773 93.3479L81.6387 91.928L83.8357 67.6394L84.0635 65.7649H50.0027L49.1482 55.6829H84.9136L85.1011 53.4186ZM36.77 10H32.0466V24.1334H36.7708V19.4008H41.0918V24.1334H45.8162V10H41.0918V14.668H36.77V10ZM47.8687 14.6874H52.0276V24.1334H56.752V14.6874H60.9124V10H47.8687V14.6874ZM67.9077 10H62.9827L62.9817 24.1334H67.6045V17.1281L70.856 22.1531H70.9382L74.1873 17.1281V24.1334H78.8931V10H73.9653L70.9382 14.9663L67.9077 10ZM85.9697 10H81.2446V24.1343H92.613V19.462H85.9697V10Z" fill="#B5A4EE"/>
</svg>
