<svg width="125" height="125" viewBox="0 0 125 125" fill="none" xmlns="http://www.w3.org/2000/svg">
<path fill-rule="evenodd" clip-rule="evenodd" d="M5 0C2.23877 0 0 2.23853 0 5V120C0 122.761 2.23877 125 5 125H120C122.761 125 125 122.761 125 120V30C125 13.4314 111.568 0 95 0H5ZM106.886 32.0082H96.0601C95.8901 32.0092 95.7646 32.0532 95.6782 32.1365C95.5747 32.2362 95.5273 32.392 95.5273 32.5952V49.4492C94.8872 49.3953 94.353 49.3942 93.873 49.3412C93.3931 49.2882 93.02 49.2882 92.7529 49.2882C87.4731 49.2882 82.9932 50.3022 79.2593 52.3822C75.7393 54.3022 72.8052 57.1812 70.7793 60.6482C68.8057 64.0665 67.793 67.9546 67.8472 71.9012C67.8472 76.7542 68.8052 80.8073 70.7793 84.0612C72.6992 87.2072 75.4731 89.7682 78.833 91.3152C82.4072 92.9683 86.354 93.7662 90.3003 93.7133C93.0732 93.7133 95.793 93.4473 98.5132 92.9672C101.497 92.4398 104.413 91.5812 107.206 90.4072C107.402 90.3235 107.539 90.1958 107.625 90.0397C107.704 89.8972 107.74 89.7311 107.74 89.5532L107.716 89.1389C107.67 88.3286 107.618 87.4148 107.527 86.4612L107.513 86.1455C107.464 85.0959 107.419 84.1334 107.419 83.2603V32.3812C107.366 32.1682 107.153 31.9552 106.886 32.0082ZM30.085 36.6482H17.98C17.7671 36.6482 17.5542 36.7012 17.4482 36.8612C17.3413 36.9672 17.3931 37.1802 17.5532 37.3942L33.7134 64.7552L17.127 91.9542C17.0698 92.0396 17.0303 92.1357 17.0122 92.2369C16.9937 92.3381 16.9966 92.4421 17.02 92.5422C17.02 92.744 17.1113 92.7321 17.248 92.7142C17.2925 92.7085 17.3413 92.7021 17.3931 92.7021H29.126C29.7134 92.7021 30.1401 92.6482 30.353 92.1143C31.5801 89.9282 32.8062 87.6342 34.0332 85.3942C35.2061 83.1542 36.4331 80.8612 37.6602 78.5682L37.7612 78.3793C38.9536 76.1482 40.145 73.9192 41.2344 71.6892H41.3394C42.6079 74.0065 43.8877 76.3175 45.1792 78.6222C46.459 80.9163 47.686 83.1542 48.8062 85.3412C49.3662 86.4612 49.9395 87.5681 50.5132 88.6752C51.0869 89.7822 51.6602 90.8892 52.2202 92.0092C52.5933 92.5422 53.1802 92.5952 54.0332 92.5952H66.2451C66.3682 92.5748 66.4761 92.5859 66.5649 92.595C66.707 92.6095 66.8008 92.6191 66.833 92.4882C66.8633 92.3673 66.8594 92.2472 66.8306 92.127C66.8086 92.0342 66.7725 91.9414 66.7261 91.8483L49.6602 63.8483L65.6602 37.4482C65.7661 37.3422 65.873 37.1292 65.8203 37.0752C65.8062 37.0122 65.7803 36.9525 65.7432 36.8995C65.7061 36.8467 65.6592 36.8016 65.6045 36.767C65.5718 36.7458 65.5361 36.7289 65.499 36.7163C65.4751 36.7083 65.4507 36.702 65.4258 36.6976C65.3623 36.6865 65.2974 36.6881 65.2344 36.7021H53.98C53.7134 36.6492 53.5 36.7012 53.2861 36.8082C53.126 36.9142 53.02 37.1282 52.9663 37.3412C51.792 39.5282 50.6191 41.8212 49.3921 44.0612C48.1631 46.29 46.9546 48.5302 45.7671 50.7812C44.5693 53.053 43.4131 55.3467 42.3003 57.6613H42.1934C41.0762 55.3654 39.8853 53.1064 38.6211 50.8882C37.519 49.0374 36.4893 47.1865 35.4424 45.3058L34.7793 44.1152C33.5522 41.8212 32.3804 39.5292 31.3672 37.2352C31.207 37.0222 31.0474 36.8622 30.833 36.7552C30.6201 36.7021 30.3521 36.6482 30.085 36.6482ZM86.3003 60.5952C88.166 59.6353 90.2461 59.2083 92.3262 59.2083C92.9131 59.2083 93.499 59.2622 94.085 59.3162C94.5703 59.3784 95.0518 59.4668 95.5273 59.5812V83.0482C94.8872 83.2612 94.3003 83.3693 93.6069 83.3162C92.9141 83.3693 92.167 83.4213 91.3672 83.4213C89.873 83.4213 88.3794 83.2083 86.939 82.7281C85.582 82.3065 84.3408 81.5765 83.313 80.5952C82.2471 79.5282 81.4473 78.2482 80.9131 76.8082C80.2681 75.051 79.9604 73.1876 80.0073 71.3162C80.0073 68.5422 80.5942 66.2491 81.7671 64.5422C82.9175 62.8621 84.4775 61.5034 86.3003 60.5952Z" fill="#B5A4EE"/>
</svg>
