<svg width="24" height="23" viewBox="0 0 24 23" fill="none" xmlns="http://www.w3.org/2000/svg">
<circle cx="12" cy="10" r="7.5" stroke="white"/>
<path d="M4.23047 9.71558C6.96143 11.1998 8.63025 11.4398 12.0257 10.301" stroke="white"/>
<path d="M5 13C8.25894 13.778 10.1956 13.8263 14 13" stroke="white"/>
<path d="M6.80469 15.5884C9.60637 16.0102 11.8517 15.8598 14.9814 14.9997" stroke="white"/>
<path d="M15.2734 16.7772C14.8146 13.9109 14.0664 12.5195 11.9079 10.4608" stroke="white"/>
<path d="M17.8828 14.7455C16.468 11.3877 15.2146 9.78547 12.2262 7.4704" stroke="white"/>
<path d="M19.1367 12.644C18.016 9.32758 16.9131 7.72275 14.1634 5.35867" stroke="white"/>
<path d="M15.8569 3.45854C13.1551 5.64004 12.2059 7.12825 11.9104 10.4603" stroke="white"/>
<path d="M13.6069 2.70329C10.5696 5.47322 9.43821 7.28107 8.83018 11.1614" stroke="white"/>
<path d="M10.3753 2.76304C7.62244 5.4625 6.66195 7.20117 6.38941 10.8835" stroke="white"/>
<ellipse cx="22.1816" cy="17.5347" rx="1.5" ry="0.6" transform="rotate(-55.4016 22.1816 17.5347)" fill="white"/>
<ellipse cx="22.1816" cy="17.5347" rx="1.5" ry="0.6" transform="rotate(-55.4016 22.1816 17.5347)" fill="white"/>
<ellipse cx="22.1816" cy="17.5347" rx="1.5" ry="0.6" transform="rotate(-55.4016 22.1816 17.5347)" fill="white"/>
<ellipse cx="22.1816" cy="17.5347" rx="1.5" ry="0.6" transform="rotate(-55.4016 22.1816 17.5347)" fill="white"/>
<line x1="21.7694" y1="17.2507" x2="18.1475" y2="14.7523" stroke="white" stroke-linecap="round"/>
<path d="M1.11747 2.69762L5.60938 5.86267" stroke="white" stroke-linecap="round"/>
<ellipse cx="17.7019" cy="21.0465" rx="1.5" ry="0.6" transform="rotate(-30.6341 17.7019 21.0465)" fill="white"/>
<ellipse cx="17.7019" cy="21.0465" rx="1.5" ry="0.6" transform="rotate(-30.6341 17.7019 21.0465)" fill="white"/>
<ellipse cx="17.7019" cy="21.0465" rx="1.5" ry="0.6" transform="rotate(-30.6341 17.7019 21.0465)" fill="white"/>
<ellipse cx="17.7019" cy="21.0465" rx="1.5" ry="0.6" transform="rotate(-30.6341 17.7019 21.0465)" fill="white"/>
<line x1="17.4478" y1="20.6159" x2="15.2058" y2="16.83" stroke="white" stroke-linecap="round"/>
<path d="M5.81549 0.682928L7.68359 3.88196" stroke="white" stroke-linecap="round"/>
</svg>
