<svg width="125" height="125" viewBox="0 0 125 125" fill="none" xmlns="http://www.w3.org/2000/svg">
<path fill-rule="evenodd" clip-rule="evenodd" d="M5 0C2.23877 0 0 2.23853 0 5V120C0 122.761 2.23877 125 5 125H120C122.761 125 125 122.761 125 120V30C125 13.4314 111.568 0 95 0H5ZM84.0708 107.53C83.3027 107.56 82.5366 107.431 81.8208 107.152C81.0972 106.87 80.4409 106.441 79.8926 105.891L44.4199 73.5299L28.9697 85.2581C28.2725 85.7872 27.4126 86.0557 26.5381 86.0167C25.6636 85.9779 24.8306 85.634 24.1836 85.0449L19.228 80.5372C18.8418 80.1859 18.5337 79.7579 18.3223 79.2806C18.1113 78.8035 18.002 78.2874 18.0015 77.7654C18.001 77.2435 18.1094 76.7273 18.3198 76.2496C18.5303 75.7721 18.8384 75.3436 19.2236 74.9917L32.6226 62.7665L19.2231 50.542C18.8374 50.1902 18.5293 49.7617 18.3188 49.2841C18.1953 49.0037 18.1069 48.71 18.0552 48.4094C18.0186 48.1981 18 47.9835 18 47.7679C18.0005 47.246 18.1099 46.7297 18.3213 46.2523C18.5322 45.775 18.8408 45.347 19.2271 44.9957L24.1826 40.488C24.8301 39.8992 25.6631 39.5555 26.5376 39.5168C27.4116 39.478 28.272 39.7466 28.9688 40.2758L44.4194 52.0045L79.8921 19.6426C80.7134 18.8207 81.77 18.2745 82.915 18.0795C84.0605 17.8845 85.2383 18.0504 86.2856 18.5542L104.815 27.469C105.769 27.9285 106.574 28.6479 107.138 29.5448C107.701 30.4417 108 31.4794 108 32.5386V92.9951C108 94.0542 107.701 95.0918 107.138 95.9885C106.574 96.8853 105.769 97.6046 104.815 98.064L86.2856 106.98C85.5928 107.314 84.8389 107.501 84.0708 107.53ZM58.5986 62.7665L85.5132 42.3358L85.5142 83.1979L58.5986 62.7665Z" fill="#B5A4EE"/>
</svg>
