<svg width="125" height="125" viewBox="0 0 125 125" fill="none" xmlns="http://www.w3.org/2000/svg">
<path fill-rule="evenodd" clip-rule="evenodd" d="M5 0C2.23858 0 0 2.23858 0 5V120C0 122.761 2.23858 125 5 125H120C122.761 125 125 122.761 125 120V30C125 13.4315 111.569 0 95 0H5ZM76 23H63.2V48.6H76C83.0693 48.6 88.8 42.8693 88.8 35.8C88.8 28.7308 83.0693 23 76 23ZM36 63C36 55.9307 41.7308 50.2 48.8 50.2H61.6V75.8H48.8C41.7308 75.8 36 70.0693 36 63ZM48.8 23C41.7308 23 36 28.7308 36 35.8C36 42.8693 41.7308 48.6 48.8 48.6H61.6V23H48.8ZM88.8 62.2C88.8 55.1308 83.0692 49.4 76 49.4C68.9308 49.4 63.2 55.1308 63.2 62.2C63.2 69.2692 68.9308 75 76 75C83.0692 75 88.8 69.2692 88.8 62.2ZM48.8 77.4C41.7308 77.4 36 83.1307 36 90.2C36 97.2693 41.7308 103 48.8 103C55.8693 103 61.6 97.2693 61.6 90.2V77.4H48.8Z" fill="#B5A4EE"/>
</svg>
