<svg width="125" height="125" viewBox="0 0 125 125" fill="none" xmlns="http://www.w3.org/2000/svg">
<path fill-rule="evenodd" clip-rule="evenodd" d="M5 0C2.23877 0 0 2.23853 0 5V120C0 122.761 2.23877 125 5 125H120C122.761 125 125 122.761 125 120V30C125 13.4314 111.568 0 95 0H5ZM57.418 67.304H42.0469C43.7539 61.262 45.4526 55.5402 47.1377 49.864C47.9624 47.0851 48.7842 44.3171 49.6021 41.528C50.4536 44.3357 51.3096 47.1284 52.1699 49.936C53.9009 55.5841 55.6504 61.2924 57.418 67.304ZM69.6826 94.272C70.252 94.288 70.8213 94.304 71.3901 94.304H77.125C77.1187 94.304 77.1182 94.2163 77.1177 94.1088C77.1172 93.9641 77.1162 93.7832 77.1001 93.731C72.7061 80.1792 68.3091 66.5701 63.918 52.9802C61.7915 46.3997 59.667 39.8237 57.5449 33.261C57.2788 32.4351 56.7832 32.392 56.0562 32.397C52.168 32.4189 48.2788 32.483 44.3931 32.397C43.1631 32.37 42.6318 32.739 42.25 33.937C36.7759 51.1479 31.2432 68.348 25.729 85.548C25.1338 87.4026 24.5513 89.2625 23.9478 91.1903C23.6392 92.1772 23.3247 93.182 23 94.213C24.0195 94.213 25.0146 94.209 25.9922 94.2051C28.4976 94.1949 30.8872 94.1853 33.2739 94.245C34.4019 94.274 34.8701 93.903 35.1782 92.8411C35.8452 90.5414 36.5381 88.2494 37.231 85.9574C38.0142 83.3667 38.7969 80.776 39.543 78.174C39.875 77.02 40.4102 76.71 41.5732 76.724C47.0972 76.7891 52.623 76.795 58.146 76.731C59.2212 76.718 59.6572 77.08 59.9619 78.072C60.7144 80.5198 61.4897 82.9673 62.2651 85.4149C63.0513 87.897 63.8379 90.3793 64.6001 92.8621C64.9131 93.882 65.3062 94.376 66.481 94.288C67.5439 94.2117 68.6133 94.2418 69.6826 94.272ZM80.0918 94.304H92.0918V49.304H80.0918V94.304ZM79.4282 37.163C79.4531 40.705 82.0771 43.228 85.7422 43.233C89.5508 43.239 92.2441 40.7161 92.2178 37.171C92.189 33.537 89.562 30.996 85.834 31C82.1348 31.004 79.4038 33.631 79.4282 37.163Z" fill="#B5A4EE"/>
</svg>
