<svg width="125" height="125" viewBox="0 0 125 125" fill="none" xmlns="http://www.w3.org/2000/svg">
<path fill-rule="evenodd" clip-rule="evenodd" d="M5 0C2.23853 0 0 2.23853 0 5V120C0 122.761 2.23853 125 5 125H120C122.761 125 125 122.761 125 120V30C125 13.4314 111.568 0 95 0H5ZM54.6804 104.613C56.2268 104.61 57.7739 104.608 59.3091 104.745C62.7661 105.052 64.6919 107.929 63.6816 111.108C63.0654 113.046 61.5898 114.142 59.6914 114.271C56.3735 114.497 53.0354 114.452 49.7058 114.475C49.4402 114.477 49.114 114.189 48.9143 113.953C48.4258 113.373 47.9548 112.778 47.4839 112.184C47.2161 111.846 46.9482 111.508 46.6772 111.172C46.4517 110.892 46.1985 110.635 45.9578 110.367L45.583 110.49C45.6021 110.735 45.6121 110.982 45.6221 111.229C45.6472 111.844 45.6724 112.459 45.8337 113.036C45.8997 113.272 46.2317 113.433 46.564 113.594C46.7148 113.667 46.8657 113.74 46.9917 113.82L47.5159 114.156C47.3186 114.271 47.1226 114.483 46.9229 114.485C46.0486 114.501 45.1738 114.507 44.2993 114.506C43.6094 114.504 42.9194 114.498 42.23 114.487C42.1248 114.485 42.0205 114.434 41.9165 114.37C41.8152 114.308 41.7141 114.234 41.6128 114.182C41.7798 114.063 41.9382 113.855 42.1133 113.839C43.1631 113.751 43.4827 113.114 43.4775 112.172C43.47 110.438 43.4709 108.705 43.4802 106.972C43.4844 106.006 43.2092 105.3 42.0723 105.257C41.9146 105.25 41.7664 105.009 41.6128 104.877C41.6619 104.847 41.7109 104.809 41.76 104.771C41.8643 104.69 41.9683 104.609 42.0715 104.61C44.0754 104.635 46.0879 104.59 48.0808 104.759C49.6506 104.892 50.686 105.979 50.7917 107.231C50.9082 108.605 50.2031 109.548 48.6084 110.154L47.9971 110.382C48.2964 110.665 48.5857 110.947 48.8706 111.223C49.563 111.896 50.2285 112.543 50.9451 113.126C51.3938 113.492 52.0293 113.71 52.6128 113.811C53.781 114.011 54.4148 113.508 54.4468 112.35C54.4932 110.624 54.4766 108.894 54.46 107.166L54.4558 106.74C54.4475 105.882 54.0793 105.317 53.1235 105.27C53.0002 105.265 52.8809 105.167 52.7615 105.07C52.7065 105.025 52.6516 104.981 52.5962 104.945C52.6594 104.908 52.7229 104.861 52.7864 104.813C52.9229 104.712 53.0598 104.61 53.1956 104.61C53.6902 104.614 54.1853 104.614 54.6804 104.613ZM45.3667 105.606V109.393C45.4626 109.396 45.5667 109.402 45.6765 109.408C46.5261 109.455 47.7175 109.522 48.1187 108.493C48.3718 107.841 48.3894 106.831 48.0398 106.237C47.509 105.335 46.2051 105.492 45.3667 105.606ZM57.2656 113.423C58.4873 113.91 60.4619 113.114 61.0137 111.878C61.7524 110.224 61.8423 108.482 60.8433 106.913C59.9141 105.453 58.4033 105.506 56.8628 105.559L56.5815 105.569C56.5815 107.904 56.553 110.168 56.6116 112.427C56.6208 112.776 56.9553 113.3 57.2656 113.423ZM91.1265 113.28C91.833 113.668 92.981 113.591 93.8076 113.337C94.082 113.254 94.2988 113.086 94.5107 112.882C94.8433 112.561 95.1641 112.15 95.6758 111.829V114.425C95.6758 114.455 95.0645 114.497 94.8071 114.497C93.666 114.499 92.5239 114.498 91.3813 114.498C89.0459 114.497 86.709 114.496 84.3774 114.513C83.7788 114.518 83.3735 114.368 83.0078 113.865C82.2886 112.874 81.4985 111.934 80.7222 110.987C80.5967 110.834 80.4468 110.701 80.2471 110.524C80.1367 110.427 80.0117 110.316 79.8672 110.18C79.8672 110.497 79.8633 110.785 79.8599 111.052C79.8525 111.602 79.8462 112.067 79.877 112.53C79.9238 113.249 80.2705 113.726 81.0659 113.816C81.2998 113.843 81.5098 114.089 81.731 114.235C81.6592 114.263 81.5879 114.299 81.5166 114.334C81.3613 114.41 81.2065 114.486 81.0503 114.489C79.5181 114.511 77.9873 114.51 76.4551 114.49C76.2212 114.487 75.9893 114.346 75.729 114.26L75.8599 114.006L75.8643 114.003C77.7417 113.246 77.7466 113.244 77.7441 111.064C77.7432 109.703 77.7324 108.342 77.7119 106.981C77.6987 106.041 77.4429 105.295 76.2959 105.255C76.1826 105.252 76.0728 105.14 75.9634 105.028C75.9131 104.977 75.8633 104.926 75.813 104.885C76.0024 104.791 76.1919 104.613 76.3809 104.615C76.8706 104.619 77.3608 104.619 77.8511 104.618C79.3018 104.616 80.7534 104.615 82.1924 104.749C84.2983 104.946 85.6006 106.702 84.8193 108.318C84.5293 108.916 83.981 109.391 83.3867 109.905C83.105 110.149 82.813 110.402 82.5332 110.681C82.7754 110.902 83.0283 111.152 83.2935 111.415C83.9331 112.047 84.6465 112.753 85.4604 113.31C87.0889 114.425 88.2007 113.788 88.2417 111.844C88.2764 110.211 88.2358 108.576 88.231 106.943C88.2261 105.974 87.9282 105.271 86.7915 105.255C86.6362 105.253 86.4878 105.087 86.3032 104.978C86.895 104.542 92.5977 104.384 95.0703 104.7L95.2417 107.395L94.9873 107.509C94.7886 107.301 94.6729 107.017 94.5571 106.734C94.3384 106.197 94.1206 105.664 93.3423 105.661C92.8486 105.659 92.3433 105.63 91.8506 105.594C91.4351 105.564 91.0283 105.529 90.645 105.502V108.911C90.645 108.846 90.8877 108.812 91.1992 108.77C91.6079 108.714 92.1353 108.642 92.3906 108.46C92.6255 108.292 92.7134 107.972 92.8159 107.598C92.8784 107.37 92.9463 107.123 93.0557 106.878C93.1157 106.986 93.1743 107.075 93.2251 107.152C93.3159 107.288 93.3809 107.386 93.3828 107.485C93.4038 108.643 93.4087 109.801 93.3828 110.958C93.3799 111.081 93.293 111.202 93.2061 111.324C93.165 111.381 93.124 111.438 93.0918 111.495C92.9775 111.399 92.8091 111.327 92.7588 111.205L92.7529 111.191C92.144 109.72 92.144 109.72 90.3765 109.878C90.4639 110.268 90.4199 110.695 90.3765 111.119C90.291 111.953 90.207 112.775 91.1265 113.28ZM79.7446 105.625V109.385C82.2603 109.474 82.8018 108.88 82.75 107.403C82.6992 105.98 81.4214 105.405 79.7446 105.625ZM25.6941 102.169C26.26 101.541 30.689 101.495 31.4185 102.078C31.3237 102.123 31.2385 102.177 31.1577 102.221C31.0688 102.271 30.9851 102.309 30.9004 102.312C29.5168 102.366 28.8762 103.231 28.4822 104.426C27.9048 106.174 27.3213 107.921 26.7358 109.667C26.2515 111.11 25.7659 112.553 25.2808 113.997C25.2056 114.221 25.1169 114.439 25.0286 114.658C24.9858 114.764 24.9431 114.869 24.9019 114.975L24.5479 115L21.5479 105.927L18.5125 114.972L18.2156 114.991C18.1663 114.883 18.1133 114.777 18.0603 114.67C17.9478 114.444 17.8347 114.217 17.7571 113.979C16.7776 110.976 15.8118 107.969 14.8442 104.964C14.4292 103.674 14.0142 102.391 12.3186 102.309C12.2432 102.305 12.1716 102.217 12.1003 102.13C12.0669 102.089 12.0337 102.048 12 102.015C12.075 101.954 12.1499 101.862 12.2251 101.793C12.2827 101.74 12.3403 101.702 12.3982 101.701C14.3042 101.681 16.2102 101.681 18.116 101.702C18.2065 101.702 18.2964 101.799 18.386 101.895C18.4275 101.94 18.4688 101.984 18.51 102.019C18.4617 102.055 18.4153 102.097 18.3689 102.138C18.2788 102.217 18.1885 102.295 18.084 102.327C16.5588 102.787 16.4482 102.964 16.9287 104.445C17.3352 105.702 17.7505 106.954 18.166 108.206C18.3699 108.821 18.5737 109.436 18.7766 110.051L19.0005 110.026C19.5667 108.351 20.1279 106.675 20.6982 105.002C20.9692 104.207 21.2424 103.412 21.5193 102.619C21.6375 102.279 21.9268 102 22.1372 101.693C22.2029 101.793 22.2759 101.89 22.3491 101.988C22.5081 102.199 22.667 102.411 22.7485 102.649C23.5293 104.929 24.2729 107.22 25.031 109.507C25.0676 109.619 25.1108 109.728 25.1787 109.898C25.2224 110.008 25.2764 110.143 25.3455 110.32C25.5754 109.622 25.8003 108.948 26.02 108.289C26.543 106.721 27.0359 105.243 27.4951 103.755C27.7217 103.023 27.4272 102.494 26.5745 102.398C26.3872 102.377 26.2041 102.32 26.0054 102.26C25.9062 102.229 25.8032 102.198 25.6941 102.169ZM66.7617 101.715C68.5635 101.711 70.3657 101.708 72.1436 101.915C74.4653 102.184 75.751 104.362 75.0508 106.409C74.4238 108.244 72.8765 108.819 71.126 108.978C70.6934 109.018 70.2573 109.015 69.7935 109.005C69.4653 108.999 69.123 108.989 68.7588 108.989C68.7817 109.354 68.8013 109.71 68.8208 110.059C68.8662 110.874 68.9097 111.652 68.9888 112.425C69.0835 113.359 69.7119 113.732 70.6016 113.808C70.8032 113.825 70.9839 114.05 71.1763 114.179C70.9658 114.285 70.7578 114.481 70.5474 114.484C69.4321 114.498 68.3164 114.504 67.2012 114.501C66.479 114.499 65.7568 114.494 65.0352 114.485C64.8135 114.483 64.5967 114.302 64.377 114.203C64.4341 114.16 64.4912 114.106 64.5483 114.051C64.6729 113.932 64.7974 113.813 64.9268 113.808C66.1538 113.762 66.6133 112.999 66.6289 111.934C66.666 109.35 66.6626 106.767 66.6313 104.183C66.6182 103.085 66.0864 102.382 64.894 102.334C64.7778 102.329 64.6636 102.285 64.5107 102.225C64.4272 102.193 64.332 102.156 64.2192 102.119C64.4531 101.917 64.585 101.705 64.7124 101.708C65.3945 101.718 66.0781 101.716 66.7617 101.715ZM68.8442 107.742C71.3599 107.975 71.9526 107.76 72.4941 106.764C73.0376 105.764 73.0376 104.719 72.396 103.773C71.6797 102.72 70.3555 102.767 69.4297 102.799C69.2065 102.807 69.0068 102.814 68.8442 102.805V107.742ZM31.1067 105.786C33.3235 103.799 36.991 103.713 39.2676 105.642C40.8086 106.95 41.5391 108.605 41.0376 110.634C40.4717 112.923 38.8567 114.149 36.6616 114.706C36.3401 114.787 36.0051 114.816 35.7117 114.841C35.5889 114.851 35.4731 114.861 35.3687 114.874C33.3586 114.787 31.7229 114.156 30.5105 112.655C28.7891 110.523 29.0505 107.629 31.1067 105.786ZM32.3022 112.088C33.4048 114.156 36.3513 114.545 37.7935 112.705C38.2559 112.116 38.5249 111.374 38.7939 110.632C38.916 110.295 39.0383 109.958 39.1787 109.635L38.991 109.511C38.8667 108.917 38.7937 108.305 38.6069 107.729C38.0686 106.078 36.9407 105.26 35.283 105.257C33.6313 105.253 32.521 106.074 31.9802 107.745C31.5007 109.23 31.5627 110.702 32.3022 112.088ZM110.51 108.275C110.903 108.471 111.3 108.66 111.691 108.857C113.667 109.858 114.373 111.243 113.703 112.83C113.024 114.441 110.966 115.274 109.123 114.652C108.614 114.479 108.144 114.196 107.674 113.972L106.955 114.916L106.637 114.819L106.636 114.042C106.635 113.063 106.634 112.083 106.649 111.104C106.651 111.022 106.734 110.942 106.817 110.861C106.856 110.824 106.895 110.786 106.926 110.749C106.974 110.807 107.03 110.864 107.086 110.92C107.205 111.04 107.324 111.16 107.369 111.302C107.807 112.691 108.651 113.612 110.157 113.767C111.015 113.855 111.855 113.75 112.153 112.772C112.423 111.877 111.802 111.373 111.132 110.991C110.395 110.572 109.621 110.229 108.866 109.843L108.856 109.837C108.529 109.669 108.204 109.501 107.909 109.285C106.855 108.508 106.457 107.387 106.769 106.251C107.047 105.236 108.084 104.375 109.32 104.339C110.238 104.312 111.238 104.547 112.384 104.692C112.455 104.63 112.444 104.412 113.282 104.036V107.705C113.282 107.76 112.987 107.815 112.915 107.869C112.819 107.734 112.659 107.606 112.518 107.474C112.399 107.362 112.293 107.247 112.249 107.122C111.754 105.734 110.686 104.981 109.466 105.347C109.048 105.471 108.545 105.891 108.433 106.277C108.341 106.593 108.671 107.216 108.995 107.429C109.477 107.746 109.99 108.017 110.51 108.275ZM101.947 108.509C102.171 108.62 102.396 108.732 102.619 108.844C104.647 109.86 105.359 111.274 104.662 112.89C103.98 114.463 101.855 115.277 100.036 114.631C99.8052 114.55 99.583 114.444 99.355 114.328C99.1133 114.205 98.8657 114.07 98.5947 113.938C98.5508 114.025 98.5132 114.108 98.4775 114.186C98.3999 114.355 98.3325 114.503 98.2349 114.626C98.1484 114.733 97.9365 114.836 97.8242 114.8C97.7178 114.767 97.6035 114.554 97.6011 114.418C97.5835 113.329 97.584 112.24 97.6025 111.151C97.604 111.059 97.6738 110.969 97.7437 110.878C97.7754 110.838 97.8066 110.797 97.8315 110.756C97.8794 110.787 97.9331 110.814 97.9873 110.841C98.1079 110.901 98.229 110.962 98.2817 111.06C98.3721 111.229 98.4185 111.421 98.4722 111.609C98.5024 111.715 98.5352 111.82 98.5796 111.919C99.1406 113.162 100.274 113.939 101.576 113.75C102.12 113.672 102.791 113.258 103.061 112.796C103.425 112.174 102.99 111.535 102.379 111.182C101.553 110.713 100.712 110.274 99.856 109.864C97.9297 108.924 97.1182 107.372 97.8071 105.907C98.4941 104.45 100.6 103.845 102.359 104.603C102.575 104.696 102.778 104.812 102.946 104.9L103.85 104.157C103.886 104.258 103.917 104.333 103.942 104.394C103.983 104.492 104.006 104.549 104.007 104.605C104.012 105.454 104.012 106.303 104.011 107.153V107.662L103.746 107.84C103.569 107.615 103.323 107.414 103.227 107.158C102.745 105.873 101.985 105.161 100.871 105.297C100.347 105.361 99.6807 105.72 99.4229 106.151C99.0459 106.784 99.5898 107.293 100.166 107.6C100.753 107.916 101.35 108.213 101.947 108.509ZM103.31 50.3687C103.31 72.6556 85.3306 90.7233 63.1191 90.756C40.6997 90.7896 22.8005 72.6539 22.8081 49.9235C22.814 27.8276 41.5767 9.60645 64.0312 10.0065C85.4126 10.3879 103.31 28.4448 103.31 50.3687ZM101.362 51.0251C101.368 29.2808 84.3779 11.9559 63.0537 11.9626C42.1008 11.9694 24.7576 29.2422 24.7568 50.1036C24.7559 71.517 41.8342 88.7352 63.0703 88.7311C83.9146 88.7269 101.355 71.553 101.362 51.0251ZM45.2947 33.8698C46.3328 33.7902 47.3086 33.3851 46.9597 32.2239C46.804 31.704 45.7063 31.1447 45.043 31.1531C42.4373 31.188 39.8328 31.3198 37.1604 31.4551C36.2393 31.5017 35.3101 31.5488 34.3699 31.5924C43.8977 14.9996 69.7539 9.53357 86.21 24.8041C83.2026 25.0791 80.9805 26.5171 80.4985 29.4132C80.2134 31.1212 80.6587 33.0607 81.1963 34.7644C81.5508 35.8909 82.2183 36.9238 82.8818 37.951C83.1006 38.2896 83.3188 38.6274 83.5254 38.9678C86.2974 43.5342 87.2114 48.3756 85.6777 53.5608C84.4717 57.6362 83.2422 61.7051 81.9595 65.95C81.4141 67.7538 80.8594 69.5894 80.293 71.4708L67.7549 34.1716C68.145 34.137 68.5264 34.1185 68.8984 34.1005C69.7476 34.0593 70.5479 34.0205 71.292 33.796C71.752 33.6571 72.1289 33.2417 72.5059 32.8263C72.6753 32.6398 72.8447 32.4532 73.0215 32.2917C72.3691 31.8934 71.7222 31.1589 71.064 31.1481C65.3145 31.0566 59.564 31.0549 53.8145 31.1431C53.157 31.1531 52.5105 31.8683 51.8591 32.2565C52.03 32.426 52.2056 32.6456 52.3809 32.8651C52.759 33.3385 53.1367 33.8113 53.4656 33.7792C56.2881 33.5026 57.2378 35.0479 57.9551 37.4366C58.6016 39.5912 59.394 41.7012 60.1875 43.8118C60.6787 45.119 61.1699 46.4265 61.6265 47.745C61.853 48.3958 61.9551 49.2341 61.749 49.8672C59.8403 55.7363 57.8809 61.588 55.9209 67.4395L54.8467 70.6483C54.7922 70.8101 54.668 70.9485 54.3669 71.4407L41.8442 34.1331C43.1111 34.0366 44.2036 33.9553 45.2947 33.8698ZM53.4221 83.2476C53.4463 83.0525 53.4653 82.8956 53.5159 82.7493C56.8464 73.0497 60.1846 63.3518 63.6641 53.2363L74.5386 83.0193C67.4204 85.4174 60.4668 85.5591 53.375 83.5936C53.3955 83.4648 53.4094 83.3508 53.4221 83.2476ZM48.0364 81.4027L31.6541 36.4633C24.2637 50.8994 29.8857 72.9257 48.0364 81.4027ZM93.6938 34.9489C95.728 36.2485 98.0815 45.7 97.5625 52.5261C96.6504 64.5172 90.9189 73.6409 80.4907 79.823C82.7114 73.4161 84.9678 67.0219 87.1382 60.599C87.4673 59.6249 87.7988 58.6512 88.1304 57.6775C89.8091 52.7437 91.4888 47.8071 92.9048 42.7988C93.4028 41.0388 93.481 39.1593 93.5571 37.3369C93.5908 36.5243 93.624 35.723 93.6938 34.9489Z" fill="#B5A4EE"/>
</svg>
