<svg width="125" height="125" viewBox="0 0 125 125" fill="none" xmlns="http://www.w3.org/2000/svg">
<path fill-rule="evenodd" clip-rule="evenodd" d="M5 0C2.23853 0 0 2.23853 0 5V120C0 122.761 2.23853 125 5 125H120C122.761 125 125 122.761 125 120V30C125 13.4314 111.569 0 95 0H5ZM63.8508 111.575C67.2788 110.576 70.2373 108.508 71.7871 105.358C73.6963 101.839 73.6294 97.7382 73.5552 93.1805C73.5422 92.3922 73.5291 91.5902 73.5259 90.7751C73.5593 84.7903 73.5486 78.9224 73.5374 72.9508C73.5317 69.9259 73.5259 66.8743 73.5259 63.7675H63.6904C63.6904 67.9045 63.6809 72.0564 63.6714 76.2201C63.6614 80.5105 63.6514 84.8134 63.6519 89.1254C63.6519 90.2201 63.6633 91.2936 63.6743 92.322C63.7175 96.3734 63.7534 99.7274 63.052 100.94C61.6123 103.929 57.8835 103.558 56.1851 102.979C54.4563 102.129 53.5769 100.92 52.5571 99.2113C52.2766 98.7207 52.0664 98.3411 51.9968 98.3116L44 103.209C45.3298 105.938 47.2886 108.307 49.7969 109.846C53.5449 112.095 58.5833 112.785 63.8508 111.575ZM82.4922 106.927C90.1094 114.654 109.171 114.274 112.589 102.58C112.73 102.18 113.649 99.5011 112.908 95.3716C112.139 90.5752 109.01 86.5458 99.7441 82.7876C99.1311 82.5059 98.5046 82.2394 97.8848 81.9757C95.2498 80.8546 92.7332 79.7839 91.8674 77.8097C91.4868 76.3901 91.4373 75.5905 91.6768 74.7311C92.3672 71.9424 95.6953 71.0729 98.3345 71.8726C100.035 72.4421 101.643 73.7526 102.613 75.8408C106.23 73.4987 106.958 73.0356 108.709 71.9216C109.155 71.6381 109.667 71.3123 110.31 70.9025C109.15 69.104 108.531 68.274 107.771 67.5046C105.042 64.457 101.324 62.8862 95.376 63.0065L92.2781 63.4071C89.3096 64.1564 86.4805 65.7155 84.8215 67.8044C79.8438 73.4526 81.2632 83.3378 87.3206 87.4059C89.8284 89.2885 92.8308 90.5597 95.5525 91.7119C99.3059 93.3011 102.525 94.6641 103.174 97.0919C104.263 102.22 99.4055 103.879 94.5771 103.289C91.0181 102.549 89.04 100.741 86.9004 97.4523C82.9617 99.7312 82.9617 99.7312 78.9138 102.06C79.7366 103.859 80.5952 104.814 81.8369 106.195C82.0442 106.425 82.262 106.667 82.4922 106.927Z" fill="#B5A4EE"/>
</svg>
