<svg width="125" height="125" viewBox="0 0 125 125" fill="none" xmlns="http://www.w3.org/2000/svg">
<path fill-rule="evenodd" clip-rule="evenodd" d="M5 0C2.23877 0 0 2.23853 0 5V120C0 122.761 2.23877 125 5 125H120C122.761 125 125 122.761 125 120V30C125 13.4314 111.568 0 95 0H5ZM10 73.1329V52H14.5337L31.4365 72.9852L31.4346 55.3829V52.0066H49.7222V55.3829H35.063V60.8142H46.8511V64.1882H35.063V69.7672H49.7227V73.1411H27.0049L13.6274 56.5166V73.1329H10ZM79.8003 55.3838V52.0082L98.0908 52.0073V55.3838H90.8335V73.1436H87.208V55.3838H79.8003ZM71.1118 73.1517L54.1064 52.0172L58.8555 52.0181L64.9912 59.6388L71.1099 52.0419L75.8594 52.0337L67.3691 62.5919L75.8721 73.1517H71.1118ZM109.976 64.3153C110.473 64.0972 111.034 63.9922 111.658 63.9922C112.292 63.9922 112.847 64.098 113.326 64.3153C113.806 64.5311 114.182 64.8322 114.455 65.2144C114.729 65.5995 114.876 66.0602 114.876 66.5327H113.317C113.304 66.3573 113.251 66.1874 113.163 66.0354C113.074 65.8833 112.952 65.7533 112.807 65.6549C112.504 65.4441 112.113 65.3407 111.633 65.3407C111.337 65.3342 111.043 65.3855 110.767 65.4917C110.631 65.5494 110.511 65.6183 110.41 65.6986C110.333 65.7598 110.266 65.8274 110.211 65.9019C110.085 66.072 110.017 66.2781 110.016 66.49C110.013 66.5931 110.029 66.6954 110.062 66.7919C110.083 66.8525 110.111 66.9109 110.146 66.9658C110.235 67.106 110.355 67.2234 110.498 67.3087C110.652 67.4055 110.816 67.484 110.988 67.5425C111.167 67.6049 111.35 67.6582 111.535 67.7024L112.372 67.9075C112.485 67.9333 112.597 67.9626 112.708 67.9952C112.926 68.0587 113.139 68.1349 113.348 68.2233C113.651 68.3485 113.935 68.5162 114.191 68.7212C114.437 68.9193 114.639 69.1674 114.782 69.4489C114.926 69.7319 115 70.0649 115 70.4471C115 70.7803 114.945 71.0858 114.834 71.3661C114.773 71.5206 114.695 71.6676 114.6 71.8073C114.332 72.1969 113.946 72.5029 113.44 72.7244C112.936 72.9409 112.326 73.0525 111.608 73.0525C110.915 73.0525 110.31 72.9458 109.802 72.7325C109.29 72.5217 108.891 72.2125 108.604 71.8057C108.317 71.3988 108.162 70.9016 108.14 70.3192H109.732C109.746 70.5977 109.847 70.8647 110.021 71.0829C110.197 71.2902 110.424 71.4476 110.68 71.5398C110.85 71.5994 111.025 71.6414 111.203 71.6654C111.333 71.683 111.464 71.6909 111.596 71.6891C111.912 71.6947 112.227 71.6414 112.524 71.5316C112.768 71.4435 112.983 71.292 113.148 71.0928C113.236 70.9846 113.301 70.8604 113.34 70.7281C113.367 70.6333 113.381 70.5343 113.38 70.4341C113.385 70.2249 113.312 70.0212 113.176 69.8623C113.02 69.697 112.828 69.5679 112.616 69.4841C112.343 69.3713 112.062 69.2798 111.774 69.2102L110.757 68.9542C110.021 68.7681 109.439 68.485 109.015 68.1044C108.587 67.7246 108.375 67.2209 108.375 66.5892C108.375 66.0708 108.519 65.6147 108.806 65.2242C109.091 64.8346 109.482 64.5311 109.976 64.3153ZM105.097 70.3036V64.1102H106.706V70.3029C106.703 70.8721 106.579 71.3594 106.338 71.7687C106.099 72.1743 105.747 72.5017 105.324 72.7113C104.895 72.9294 104.391 73.0394 103.819 73.0394C103.334 73.0463 102.854 72.9512 102.408 72.7605C102.004 72.5883 101.66 72.3027 101.415 71.9385C101.169 71.5751 101.048 71.1223 101.048 70.5801H102.658C102.656 70.7958 102.711 71.0082 102.818 71.1953C102.92 71.3656 103.069 71.5026 103.247 71.5898C103.431 71.6826 103.641 71.7294 103.879 71.7294C104.137 71.7294 104.359 71.6743 104.538 71.5653C104.723 71.4535 104.869 71.2858 104.953 71.0862C105.046 70.8754 105.095 70.6129 105.097 70.3036ZM54.0933 73.1674L61.3481 64.1587L63.7256 67.1134L58.8555 73.1674H54.0933ZM98.2256 71.4053C98.4141 71.2216 98.6406 71.1296 98.9062 71.1296C99.0303 71.1288 99.1533 71.1526 99.2681 71.2C99.3296 71.2255 99.3882 71.2574 99.4429 71.2953C99.4897 71.3278 99.5337 71.3645 99.5742 71.4053C99.6655 71.4896 99.7388 71.5919 99.7886 71.7058C99.8384 71.8198 99.8643 71.9429 99.8643 72.0673C99.8643 72.1444 99.854 72.2208 99.835 72.2948C99.812 72.3826 99.7764 72.4668 99.728 72.5447C99.6382 72.6891 99.5225 72.8031 99.377 72.886C99.271 72.9493 99.1528 72.9901 99.0308 73.0062C98.9897 73.0117 98.9482 73.0143 98.9062 73.0139C98.6406 73.0139 98.4141 72.9229 98.2256 72.7383C98.1338 72.6528 98.061 72.5487 98.0122 72.4331C97.9639 72.3174 97.9399 72.1927 97.9434 72.0673C97.9409 71.9432 97.9648 71.8202 98.0132 71.7061C98.062 71.5919 98.1343 71.4895 98.2256 71.4053Z" fill="#B5A4EE"/>
</svg>
