<svg width="125" height="125" viewBox="0 0 125 125" fill="none" xmlns="http://www.w3.org/2000/svg">
<path fill-rule="evenodd" clip-rule="evenodd" d="M5 0C2.23877 0 0 2.23853 0 5V120C0 122.761 2.23877 125 5 125H120C122.761 125 125 122.761 125 120V30C125 13.4314 111.568 0 95 0H5ZM63.1201 18C44.498 18 29.3574 23.2007 29.0063 30.1053C29.002 30.0237 29 29.9419 29 29.8599V30.351V95.649C29 102.41 44.0122 107.892 62.6401 108H63.1201C81.9624 108 97.2397 102.676 97.2397 95.649V30.351V29.8599L97.2383 29.9731C97.2373 30.0164 97.2358 30.0596 97.2334 30.1027C96.8784 23.1993 81.7397 18 63.1201 18ZM92.6064 32.8986C93.9653 31.7341 94.2397 30.8635 94.2397 30.351C94.2397 29.7787 93.9448 28.8876 92.6006 27.7299C91.2549 26.5709 89.1304 25.401 86.2354 24.3651C80.4692 22.302 72.2993 21 63.1201 21C53.9404 21 45.7705 22.302 40.0049 24.3651C37.1099 25.401 34.9849 26.5709 33.6396 27.7299C32.2954 28.8876 32 29.7787 32 30.351C32 30.9229 32.2949 31.8135 33.6392 32.9711C34.9849 34.1296 37.1094 35.2992 40.0044 36.3348C45.7705 38.3973 53.9404 39.6989 63.1201 39.6989C72.2896 39.6989 80.4585 38.36 86.2271 36.2777C89.124 35.2321 91.2554 34.056 92.6064 32.8986ZM80.0435 27.8003C82.1094 28.3463 83.5752 28.9452 84.459 29.4906C83.5781 30.0406 82.1118 30.6447 80.04 31.1948C75.918 32.2896 70.064 33 63.5 33C56.936 33 51.082 32.2896 46.96 31.1948C44.877 30.6416 43.4058 30.0342 42.5269 29.4817C43.4053 28.9335 44.874 28.332 46.9531 27.7849C51.0767 26.7001 56.9326 26 63.5 26C70.064 26 75.9194 26.7102 80.0435 27.8003ZM88 29.478C88 33.0923 76.9937 36 63.5 36C50.0063 36 39 33.0923 39 29.478C39 25.8638 50.0063 23 63.5 23C76.9937 23 88 25.9071 88 29.478Z" fill="#B5A4EE"/>
<path d="M83.1821 77.8876V58.302H77.9955V82.0939H92.17V77.8876H83.1821ZM42.0479 68.2669C40.9772 67.8363 39.984 67.2334 39.1079 66.4822C38.8756 66.2362 38.6949 65.9464 38.5763 65.6295C38.4578 65.3127 38.4038 64.9754 38.4176 64.6374C38.4001 64.2992 38.4705 63.9623 38.622 63.6594C38.7735 63.3565 39.0009 63.0981 39.2821 62.9094C39.9911 62.419 40.8417 62.1756 41.7028 62.2167C43.7543 62.1254 45.7787 62.7125 47.463 63.8872V58.9347C45.6233 58.2479 43.665 57.9347 41.7028 58.0136C39.4422 57.8924 37.2132 58.5863 35.4209 59.9693C34.6403 60.5717 34.014 61.3509 33.5937 62.2428C33.1734 63.1347 32.971 64.1138 33.0033 65.0992C33.0033 68.036 34.8448 70.3401 38.7636 72.0682C40.0355 72.6094 41.2346 73.3053 42.3364 74.1438C42.6056 74.3696 42.8224 74.6514 42.9716 74.9696C43.1207 75.2878 43.1987 75.6347 43.2 75.9861C43.2 76.6982 42.8549 77.3626 42.2788 77.7741C41.4935 78.2322 40.5919 78.4521 39.6839 78.4069C37.3668 78.3875 35.1356 77.5272 33.4052 75.9861V81.3437C35.3077 82.3257 37.4308 82.8019 39.5705 82.7266C41.9848 82.8692 44.3772 82.2016 46.3677 80.8244C47.0704 80.159 47.6082 79.3389 47.9384 78.4293C48.2687 77.5196 48.3822 76.5455 48.27 75.5843C48.2981 74.1095 47.7857 72.6753 46.8295 71.5521C45.4834 70.1342 43.8543 69.0149 42.0479 68.2669ZM72.2361 77.4258C73.5439 75.2356 74.2033 72.7193 74.1375 70.1692C74.0071 68.0094 73.3546 65.9136 72.2361 64.0614C71.3367 62.2628 69.9364 60.7626 68.2039 59.7416C66.4476 58.7454 64.4604 58.228 62.4413 58.2412C60.2653 58.1943 58.1166 58.732 56.2192 59.7983C54.4405 60.7905 52.9816 62.2693 52.0137 64.0614C50.9939 66.0979 50.4803 68.3504 50.5165 70.6277C50.528 72.6297 51.0012 74.602 51.8995 76.3912C52.7791 78.17 54.161 79.6519 55.8741 80.6534C57.6144 81.7134 59.5979 82.3085 61.6343 82.3815L66.5901 88.1417H73.5615L66.4726 81.8063C68.8597 81.0901 70.907 79.5341 72.2361 77.4258ZM66.4726 75.9861C65.9486 76.6376 65.2807 77.1587 64.5213 77.5085C63.7619 77.8582 62.9318 78.0271 62.0961 78.0018C61.2538 78.0296 60.417 77.856 59.6553 77.4954C58.8936 77.1348 58.2289 76.5977 57.7164 75.9286C56.5009 74.2643 55.9093 72.2256 56.045 70.1692C55.9127 68.1121 56.504 66.0736 57.7164 64.4065C58.2585 63.7379 58.9436 63.1994 59.7213 62.8307C60.4991 62.4619 61.3496 62.2723 62.2104 62.2758C63.052 62.2387 63.8894 62.4144 64.645 62.7869C65.4007 63.1593 66.0502 63.7164 66.5334 64.4065C67.6674 66.1059 68.2132 68.1301 68.0872 70.1692C68.2896 72.2414 67.7141 74.3147 66.4726 75.9861Z" fill="#B5A4EE"/>
</svg>
