<svg width="24" height="24" viewBox="0 0 24 24" fill="none" xmlns="http://www.w3.org/2000/svg">
<path fill-rule="evenodd" clip-rule="evenodd" d="M3 0C1.34315 0 0 1.34315 0 3V21C0 22.6569 1.34315 24 3 24H21C22.6569 24 24 22.6569 24 21V3C24 1.34315 22.6569 0 21 0H3ZM20.4459 3L14.1173 10.6218H14.1169L21 21H15.9379L11.3028 14.0113L5.49977 21H4L10.637 13.0074L4 3H9.06215L13.4511 9.61788L18.9463 3H20.4459ZM11.3907 12.0991L12.0632 13.0956V13.096L16.6434 19.8835H18.947L13.3341 11.5655L12.6617 10.5689L8.34371 4.16971H6.04016L11.3907 12.0991Z" fill="#D9D9D9"/>
</svg>
