<svg width="125" height="125" viewBox="0 0 125 125" fill="none" xmlns="http://www.w3.org/2000/svg">
<path fill-rule="evenodd" clip-rule="evenodd" d="M0 5C0 2.23853 2.23877 0 5 0H95C111.568 0 125 13.4314 125 30V120C125 122.761 122.761 125 120 125H5C2.23877 125 0 122.761 0 120V5ZM63 27C52.333 27 45.6689 32.3313 43 42.9982C46.9985 37.6663 51.667 35.6669 56.9985 37C60.043 37.7588 62.2188 39.9663 64.6279 42.4125C68.5493 46.3918 73.0879 50.9988 83 50.9988C93.666 50.9988 100.331 45.6669 103 34.9976C99.0005 40.3325 94.333 42.3319 89.0005 40.9988C85.9614 40.2405 83.7896 38.0388 81.3813 35.5969L81.3711 35.5863C77.4526 31.6069 72.915 27 63 27ZM43 50.9988C32.334 50.9988 25.6689 56.3306 23 67C26.9985 61.665 31.666 59.6656 36.9985 60.9988C40.043 61.7582 42.2188 63.965 44.6279 66.4113C48.5493 70.3906 53.0879 74.9976 63 74.9976C73.666 74.9976 80.3311 69.6663 83 58.9994C79.0005 64.3313 74.333 66.3307 69.0005 64.9976C65.9619 64.24 63.7905 62.0386 61.3828 59.597L61.3711 59.585C57.4526 55.6056 52.915 50.9988 43 50.9988ZM36.1514 98.4977V83.3916L38.377 83.3905V98.4977H36.1514ZM31.0342 85.1688C31.0342 84.391 31.6729 83.7522 32.4521 83.7522C33.231 83.7522 33.873 84.391 33.873 85.1688C33.8989 85.9222 33.23 86.59 32.4521 86.59C31.6743 86.59 31.0342 85.9211 31.0342 85.1688ZM56.6304 85.1688C56.6304 84.391 57.269 83.7522 58.0479 83.7522C58.8271 83.7522 59.4692 84.391 59.4692 85.1688C59.4946 85.9222 58.8569 86.59 58.0479 86.59C57.27 86.59 56.6304 85.9222 56.6304 85.1688ZM81.8101 89.5947V84.0037L84.0356 84.0048V98.4977H81.8101V96.993C81.0308 98.0814 79.8057 98.7491 78.1929 98.7491C75.3799 98.7491 73.0459 96.3542 73.0459 93.2939C73.0459 90.2079 75.3799 87.843 78.1929 87.843C79.8057 87.843 81.0308 88.5074 81.8101 89.5947ZM11.895 85.3647L14.1211 84.6992V88.1469H16.6772V90.2903H14.1475V95.2715C14.1475 96.6058 15.0078 96.5757 16.707 96.4934V98.4977C13.2573 98.915 11.895 97.9657 11.895 95.2715V90.2903H10V88.1469H11.895V85.3647ZM17.7378 93.2939C17.7378 90.2079 20.0713 87.843 22.8848 87.843C24.4971 87.843 25.7183 88.5074 26.5015 89.5936V88.1469H28.7275V98.4977H26.5015V96.993C25.7192 98.0814 24.4985 98.7491 22.8848 98.7491C20.0728 98.7491 17.7378 96.3542 17.7378 93.2939ZM64.0039 89.5123C64.6997 88.3995 65.8125 87.8687 67.2036 87.8687C69.5117 87.8687 71.1807 89.4556 71.1807 92.1243V98.4977H68.9551V92.377C68.9551 90.7899 68.0381 89.9854 66.647 89.9854C65.1724 89.9854 64.0039 90.8467 64.0039 92.959V98.5233H61.7783V88.177H64.0039V89.5123ZM86.04 93.324C86.04 90.2324 88.3745 87.8687 91.5176 87.8687C93.5527 87.8687 95.3032 88.9248 96.1382 90.5417L94.2173 91.6547C93.7729 90.6809 92.7427 90.0677 91.4907 90.0677C89.6567 90.0677 88.291 91.4587 88.291 93.324C88.291 95.1847 89.6821 96.5757 91.4907 96.5757C92.7427 96.5757 93.7422 95.9358 94.2471 94.9933L96.1646 96.076C95.3301 97.7186 93.5527 98.7759 91.5176 98.7759C88.4058 98.7759 86.04 96.3843 86.04 93.324ZM97.6113 91.0681C97.6113 89.1206 99.2817 87.8987 101.394 87.8987C103.095 87.8987 104.51 88.6777 105.237 90.0376L103.342 91.0983C102.981 90.2892 102.26 89.9286 101.394 89.9286C100.591 89.8986 99.894 90.2625 99.894 90.9858C99.894 91.7661 100.84 92.0305 101.953 92.3412C103.538 92.7838 105.458 93.3204 105.458 95.5764C105.458 97.6375 103.65 98.7759 101.424 98.7759C99.3643 98.7759 97.8628 97.8278 97.1943 96.3542L99.1162 95.2415C99.4453 96.1896 100.28 96.746 101.424 96.746C102.423 96.746 103.176 96.4099 103.176 95.5753C103.176 94.8181 102.226 94.5485 101.111 94.2319C99.5278 93.7825 97.6113 93.2384 97.6113 91.0681ZM107.154 91.0681C107.154 89.1206 108.822 87.8987 110.94 87.8987C112.635 87.8987 114.052 88.6777 114.78 90.0376L112.888 91.0983C112.523 90.2892 111.802 89.9286 110.94 89.9286C110.132 89.8986 109.436 90.2625 109.436 90.9858C109.436 91.7661 110.382 92.0305 111.494 92.3412C113.079 92.7838 115 93.3204 115 95.5764C115 97.6375 113.191 98.7759 110.966 98.7759C108.905 98.7759 107.405 97.8278 106.737 96.3542L108.658 95.2415C108.992 96.1896 109.826 96.746 110.966 96.746C111.965 96.746 112.719 96.4099 112.719 95.5753C112.719 94.8181 111.769 94.5485 110.654 94.2319C109.071 93.7825 107.154 93.2384 107.154 91.0681ZM31.3403 98.4966V88.1469H33.5659V98.4966H31.3403ZM43.3335 98.4966L40.0786 88.1469H42.4424L44.4434 95.2982L46.6167 88.1469H48.7588L50.8955 95.2982L52.9321 88.1469H55.2969L52.042 98.4977H49.8418L47.6992 91.5155L45.5293 98.4966H43.3335ZM56.936 98.4966V88.1469H59.1621V98.4966H56.936ZM26.5015 93.324C26.5015 91.4031 25.0806 90.0121 23.2153 90.0121C21.3555 90.0121 19.9321 91.402 19.9321 93.324C19.9634 95.2415 21.3545 96.6324 23.2153 96.6324C25.0806 96.6324 26.5015 95.2404 26.5015 93.324ZM81.8101 93.324C81.8101 91.4031 80.3887 90.0121 78.5278 90.0121C76.6641 90.0121 75.2407 91.402 75.2407 93.324C75.2407 95.2415 76.6631 96.6324 78.5269 96.6324C80.3887 96.6324 81.8101 95.2404 81.8101 93.324Z" fill="#B5A4EE"/>
</svg>
