<svg width="125" height="125" viewBox="0 0 125 125" fill="none" xmlns="http://www.w3.org/2000/svg">
<path fill-rule="evenodd" clip-rule="evenodd" d="M0 5C0 2.23858 2.23858 0 5 0H95C111.569 0 125 13.4315 125 30V120C125 122.761 122.761 125 120 125H5C2.23858 125 0 122.761 0 120V5ZM63.0418 56.255C67.3851 56.255 70.906 52.7341 70.906 48.3908C70.906 44.0475 67.3851 40.5266 63.0418 40.5266C58.6985 40.5266 55.1776 44.0475 55.1776 48.3908C55.1776 52.7341 58.6985 56.255 63.0418 56.255ZM80.2077 86.8662C75.3031 86.8662 69.2147 83.3147 63.0417 77.3108C56.8687 83.2301 50.7803 86.7817 45.8758 86.6125C44.2691 86.6125 42.747 86.2743 41.4786 85.5133C37.1659 83.061 35.5593 76.6343 36.9968 67.5863C37.2505 65.9796 37.5888 64.3729 38.0116 62.6817C36.3203 62.2589 34.7982 61.7515 33.2761 61.1596C24.7354 57.9463 20 53.38 20 48.3063C20 43.3172 24.7354 38.7508 33.2761 35.453L33.2765 35.4528C34.7985 34.9455 36.3205 34.4382 38.0116 33.9308C37.5888 32.2396 37.2505 30.633 36.9968 29.0263C35.4747 19.9782 37.0814 13.6361 41.4786 11.0993C42.747 10.3382 44.2691 10 45.8758 10C50.7803 10 56.8687 13.5516 62.9571 19.5554C69.1301 13.5516 75.3031 10 80.1231 10C81.7298 10 83.2519 10.3382 84.5203 11.0993C88.9175 13.6361 90.5241 20.0628 89.0866 29.28C88.8329 30.8866 88.4947 32.4933 88.0719 34.1845C89.7631 34.6073 91.2852 35.1147 92.8073 35.7066C101.348 38.92 106.083 43.4863 106.083 48.56C106.083 53.5491 101.348 58.1154 92.8073 61.4133C91.2852 61.9206 89.7631 62.428 88.0719 62.9354C88.4947 64.6266 88.8329 66.2333 89.0866 67.8399C90.6087 76.888 89.002 83.2301 84.6048 85.7669C83.3364 86.528 81.8143 86.8662 80.2077 86.8662ZM63.0417 65.9796C61.435 65.9796 59.8284 65.9796 58.3063 65.895C59.8284 67.9245 61.435 69.7848 63.0417 71.5606C64.6484 69.7848 66.255 67.9245 67.7771 65.895C66.255 65.9796 64.6484 65.9796 63.0417 65.9796ZM48.2512 57.9206C48.1093 57.6777 47.9663 57.4327 47.8207 57.1852C46.9751 55.8322 46.214 54.3947 45.5375 53.0417C44.5228 55.4094 43.6772 57.7771 42.9161 60.0603C45.2838 60.5677 47.7361 60.9905 50.3575 61.3287C49.5875 60.2087 48.9333 59.0886 48.2512 57.9206ZM50.3575 35.5375C47.7361 35.8758 45.2838 36.2986 42.9161 36.8059C43.5926 39.0891 44.4382 41.4568 45.5375 43.9091C46.214 42.4715 46.9751 41.1186 47.8207 39.681C48.6662 38.2436 49.5118 36.8907 50.3573 35.5378L50.3575 35.5375ZM51.2031 41.5414C49.8501 43.8245 48.6663 46.1077 47.567 48.3908C48.6663 50.674 49.8501 52.9571 51.2031 55.2403C52.4715 57.4389 53.8245 59.6375 55.3466 61.8361C57.7989 62.0052 60.3357 62.0898 63.0417 62.0898C65.6631 62.0898 68.1999 62.0052 70.7368 61.8361L70.7369 61.8359C72.1744 59.6374 73.6119 57.4388 74.8803 55.2403C76.2333 52.9571 77.4171 50.674 78.5164 48.3908C77.4171 46.1077 76.2333 43.8245 74.8803 41.5414C73.6119 39.3428 72.2589 37.1442 70.7368 34.9456C68.2845 34.7765 65.7477 34.6919 63.0417 34.6919C60.4203 34.6919 57.8835 34.7765 55.3466 34.9456L55.3466 34.9456C53.9091 37.1442 52.4715 39.3428 51.2031 41.5414ZM78.3473 39.5965L80.6305 43.8245C81.6452 41.4568 82.4908 39.0891 83.2519 36.7214C80.8841 36.214 78.4319 35.7912 75.8105 35.453C76.5805 36.573 77.2346 37.693 77.9167 38.861C78.0586 39.1039 78.2017 39.3489 78.3473 39.5965ZM83.2519 59.9757C82.4908 57.6926 81.6452 55.3249 80.6305 52.9571C79.8694 54.3947 79.1084 55.8322 78.3473 57.1006C77.5017 58.5382 76.6561 59.8912 75.8105 61.2442C78.4319 60.9059 80.8841 60.4831 83.2519 59.9757ZM80.1231 82.8919C81.0533 82.8919 81.8989 82.7227 82.5754 82.2999C85.4505 80.6933 86.3806 75.535 85.1968 68.3473C84.9431 66.8252 84.6894 65.3031 84.2666 63.781C80.715 64.6266 76.9098 65.2185 72.9354 65.5568C70.5677 68.8547 68.1999 71.8143 65.7477 74.4357C70.8213 79.5094 75.9796 82.8919 80.1231 82.8919ZM102.109 48.3908C102.109 44.5856 96.4434 40.4421 86.9726 37.7361C85.9578 41.2031 84.5203 44.7547 82.8291 48.3908C84.5203 52.027 85.8733 55.5785 86.9726 59.0456C88.4947 58.6227 90.0168 58.1154 91.3697 57.608C98.2192 54.9866 102.109 51.6887 102.109 48.3908ZM82.6599 14.4817C81.8989 14.0589 81.1378 13.8898 80.2077 13.8898C76.0641 13.8898 70.9059 17.3568 65.8322 22.346C68.2845 24.9674 70.7368 27.927 73.0199 31.2249C76.9943 31.6477 80.7996 32.2396 84.3512 33.0007C84.4232 32.6586 84.4952 32.3204 84.5664 31.9859C84.8296 30.7497 85.0817 29.5658 85.2813 28.4344C86.4652 21.1621 85.4504 16.0884 82.6599 14.4817ZM63.0418 30.8021C64.6484 30.8021 66.2551 30.8021 67.7771 30.8866C66.255 28.9417 64.6484 26.9968 63.0417 25.221C61.435 26.9968 59.8284 28.8572 58.3063 30.8866C59.8283 30.8021 61.435 30.8021 63.0416 30.8021H63.0417H63.0418ZM45.9603 13.8898C45.0301 13.8898 44.1845 14.0589 43.508 14.4817C40.633 16.173 39.7028 21.2467 40.8866 28.4344C41.1403 29.9565 41.394 31.4786 41.8168 33.0007C45.3684 32.1551 49.1736 31.5631 53.148 31.2249C55.5157 27.927 57.8835 24.9674 60.3357 22.346C55.2621 17.2723 50.1038 13.8898 45.9603 13.8898ZM23.9744 48.3908C23.9744 52.1961 29.64 56.3396 39.1109 59.0456C40.1256 55.6631 41.5631 52.027 43.2544 48.3908C41.5631 44.7547 40.2102 41.2031 39.1109 37.7361C37.5888 38.1589 36.0666 38.6663 34.7137 39.1736C27.8642 41.7951 23.9744 45.0929 23.9744 48.3908ZM41.6016 64.7958C41.3384 66.032 41.0863 67.2158 40.8866 68.3473C39.7028 75.535 40.633 80.6933 43.508 82.2999C44.2691 82.7227 45.0301 82.8919 45.9603 82.8919C50.1038 82.8919 55.2621 79.4248 60.3357 74.4357C57.8835 71.8143 55.4312 68.8547 53.148 65.5568C49.1736 65.134 45.3684 64.542 41.8168 63.781C41.7448 64.1231 41.6728 64.4613 41.6016 64.7958ZM38.2652 95.8297C39.28 98.3666 39.1954 100.903 37.3351 103.187C36.3203 104.54 34.7982 105.131 33.0224 105.385C35.0519 108.429 36.9968 111.389 39.0263 114.518H35.7284C35.5593 114.518 35.3056 114.264 35.221 114.095L30.1474 106.231C29.8937 105.808 29.4709 105.639 28.9635 105.639H24.9891V113.926H22.4523V92.0245H23.0442C24.084 92.0245 25.1332 92.0151 26.1854 92.0058C28.2995 91.9869 30.4261 91.968 32.5151 92.0245C35.1365 92.109 37.2505 93.2929 38.2652 95.8297ZM24.9891 94.6459V103.017C25.8761 103.017 26.701 103.028 27.4856 103.038C28.9451 103.056 30.265 103.072 31.5849 103.017C33.8681 102.933 35.7284 101.157 35.7284 98.8739C35.7284 96.5908 34.1217 94.815 31.8386 94.7304C30.3773 94.6034 28.8682 94.6195 27.3832 94.6354C26.8917 94.6406 26.4029 94.6459 25.9193 94.6459H24.9891ZM46.8059 98.5357C50.9494 96.6753 56.3614 98.1974 57.7143 104.117C57.8835 104.709 57.968 105.385 57.8835 106.146V107.245H44.7765C44.9456 108.937 45.8758 111.22 47.7361 112.15C50.6112 113.503 53.2326 112.827 55.6003 110.797C56.0231 111.304 56.4459 111.896 56.8687 112.488C55.7694 113.672 54.3319 114.433 52.7252 114.771C49.8501 115.279 47.0596 115.025 44.7765 112.996C42.747 111.22 41.9859 108.852 42.0705 106.231C42.1551 102.764 43.5926 99.9732 46.8059 98.5357ZM50.0193 100.227C47.2287 100.227 44.6919 102.933 44.9456 105.47H55.3466C55.2621 102.087 53.2326 100.142 50.0193 100.227ZM67.0161 97.8592C68.2845 97.7746 69.6375 97.8592 70.9059 98.1129C73.2736 98.6203 74.7112 100.142 74.7112 102.595C74.7686 105.238 74.748 107.998 74.7289 110.557C74.7198 111.764 74.7112 112.926 74.7112 114.01H72.3435V112.911C71.6975 113.266 71.2242 113.585 70.82 113.857C70.1659 114.296 69.6927 114.615 68.961 114.771C67.4389 115.11 65.8322 115.11 64.3947 114.518C62.1115 113.588 60.9277 111.643 61.0968 109.021C61.2659 106.738 62.7035 104.962 64.9866 104.37C67.4389 103.778 69.7221 104.117 71.7515 105.808C71.8361 105.893 71.9206 105.977 72.1743 105.977C72.1503 105.616 72.1399 105.255 72.1296 104.896C72.1037 103.994 72.0781 103.103 71.8361 102.256C71.4133 100.734 69.9757 100.227 68.4536 100.142C66.5087 99.9732 64.9021 100.65 63.5491 101.918C63.38 102.003 63.2108 102.172 63.0417 102.341C62.7506 101.953 62.5151 101.592 62.2874 101.244C62.1183 100.985 61.9535 100.733 61.7733 100.481C63.2108 98.9585 64.9866 98.0283 67.0161 97.8592ZM72.0898 109.529C72.0898 109.444 72.0804 109.36 72.071 109.275C72.0522 109.106 72.0334 108.937 72.0898 108.768C72.2589 108.091 71.9206 107.668 71.4133 107.245C69.8066 106.062 68.0308 105.639 66.0859 106.315C64.6484 106.738 63.7182 108.176 63.8028 109.613C63.8028 111.051 64.8175 112.319 66.255 112.742C67.5235 113.165 68.7919 112.996 69.9757 112.573C71.667 111.896 72.0898 111.304 72.0898 109.529ZM91.0315 102.003C89.5094 100.142 87.4799 99.7195 85.2813 100.396C83.0827 101.157 81.9834 102.848 81.8143 104.962C81.4761 106.823 81.7298 108.683 82.9136 110.29C84.9431 112.996 88.7483 113.249 91.0315 110.713C91.1161 110.543 91.2006 110.459 91.3697 110.29L91.3697 110.29C91.9616 110.882 92.5535 111.389 93.1454 111.896L93.1455 111.896C91.8771 113.503 90.2704 114.433 88.3255 114.687C85.0276 115.11 82.2371 114.095 80.2922 111.135C78.2627 108.007 78.1782 102.087 82.3217 99.0431C85.2813 96.929 90.1013 97.2673 92.5536 99.8887C92.5889 99.9416 92.6205 99.9909 92.6507 100.038C92.7654 100.217 92.8602 100.364 93.061 100.565C92.7368 100.849 92.4515 101.113 92.1771 101.367C91.8788 101.643 91.5935 101.908 91.2852 102.172L91.0315 102.003ZM102.616 112.065C102.616 112.065 102.701 111.981 102.87 111.896C103.124 112.488 103.377 113.08 103.631 113.588C103.631 113.672 103.547 114.01 103.377 114.095C102.278 115.025 99.8259 115.194 98.5575 114.433C97.3736 113.757 97.0353 112.573 97.0353 111.22V100.396H94.3294C94.3294 100.083 94.3178 99.8284 94.3075 99.6014C94.29 99.2146 94.2761 98.9087 94.3294 98.5357C94.3294 98.3666 94.5831 98.1974 94.7522 98.1974H96.9508V93.6311H99.4876V97.8592H102.87V100.396H99.6568C99.597 100.993 99.5795 101 99.5743 101.012C99.5722 101.017 99.5722 101.023 99.5722 101.073V110.713C99.6567 111.389 99.7413 112.065 100.502 112.404C101.263 112.657 101.94 112.573 102.616 112.065Z" fill="#B5A4EE"/>
</svg>
