<svg width="125" height="125" viewBox="0 0 125 125" fill="none" xmlns="http://www.w3.org/2000/svg">
<path fill-rule="evenodd" clip-rule="evenodd" d="M5 0C2.23877 0 0 2.23853 0 5V120C0 122.761 2.23877 125 5 125H120C122.761 125 125 122.761 125 120V30C125 13.4314 111.568 0 95 0H5ZM107.196 69.1829C105.428 67.3018 103.142 65.9865 100.627 65.4028V65.4197C97.9961 64.9467 95.3086 64.873 92.6558 65.2013C86.9268 66.2849 83.0039 69.9388 81.8867 75.1721C81.5874 77.4075 81.6494 79.6765 82.0718 81.8921C82.6377 83.8313 83.6211 85.6233 84.9531 87.1421C87.0864 89.4436 89.4219 90.8884 94.8398 93.2236C99.5352 95.2733 101.215 96.2561 102.055 97.4237C102.654 98.3073 102.924 99.3729 102.818 100.435C102.712 101.497 102.237 102.489 101.476 103.236C99.2075 105.278 94.6211 105.521 91.2612 103.757C89.6958 102.76 88.3428 101.465 87.2798 99.9436L86.6499 99.0112L83.6343 100.758L79.77 102.976C79.4336 103.157 79.1108 103.362 78.8042 103.589C78.6865 103.791 80.5679 106.571 81.5342 107.638C84.4136 110.557 88.1465 112.484 92.1938 113.14C94.8452 113.5 97.5317 113.529 100.19 113.224C106.012 112.241 110.128 109.276 111.808 104.908C113.32 100.893 112.824 95.4664 110.59 92.1064C108.59 89.0741 105.373 86.9404 97.8555 83.7064C93.7729 81.9425 92.4707 81.0773 91.7739 79.624C91.4502 79.0209 91.2939 78.3424 91.3203 77.6584C91.3032 74.9116 93.353 73.2401 96.5366 73.4585C97.542 73.496 98.5215 73.7876 99.3838 74.3062C100.246 74.8246 100.963 75.5531 101.467 76.4237C101.913 77.0873 102.316 77.524 102.417 77.4569C105.18 75.7433 109.716 72.6772 109.716 72.5428C109.016 71.3246 108.169 70.1963 107.196 69.1829ZM75.9819 74.1052V69.8044L75.9312 65.4785H57.6108C47.5308 65.4617 39.1812 65.4952 39.1309 65.5625C39.0156 67.0043 38.9766 68.451 39.0132 69.8969V74.0969H52.6802V112.938H62.3486V74.1052H75.9819Z" fill="#B5A4EE"/>
</svg>
