<svg width="125" height="125" viewBox="0 0 125 125" fill="none" xmlns="http://www.w3.org/2000/svg">
<path fill-rule="evenodd" clip-rule="evenodd" d="M0 5C0 2.23853 2.23877 0 5 0H95C111.568 0 125 13.4314 125 30V120C125 122.761 122.761 125 120 125H5C2.23877 125 0 122.761 0 120V5ZM62.8555 10C43.3535 10 27.5381 25.8114 27.5381 45.3176C27.5381 60.9215 37.6572 74.1603 51.6904 78.8298C53.4551 79.1569 54.1035 78.0636 54.1035 77.1305C54.1035 76.2888 54.0703 73.5062 54.0557 70.5559C44.2295 72.6918 42.1562 66.3887 42.1562 66.3887C40.5503 62.3062 38.2349 61.2203 38.2349 61.2203C35.0308 59.0288 38.4756 59.0736 38.4756 59.0736C42.0229 59.3226 43.8906 62.7137 43.8906 62.7137C47.04 68.1129 52.1528 66.5514 54.1675 65.649C54.4854 63.3662 55.4004 61.8073 56.4106 60.9257C48.5659 60.0332 40.3193 57.0042 40.3193 43.4714C40.3193 39.6155 41.6992 36.4652 43.9585 33.9915C43.5918 33.1016 42.3833 29.5088 44.3008 24.6443C44.3008 24.6443 47.2661 23.6962 54.0132 28.2661C56.8315 27.4833 59.853 27.0906 62.854 27.0773C65.856 27.0914 68.8789 27.4841 71.7017 28.2661C78.4419 23.697 81.4038 24.645 81.4038 24.645C83.3267 29.5096 82.1177 33.1016 81.751 33.9923C84.0156 36.4644 85.3853 39.6155 85.3853 43.4723C85.3853 57.0365 77.123 60.0233 69.2583 60.8966C70.5254 61.9923 71.6543 64.1423 71.6543 67.438C71.6543 70.5962 71.6362 73.3424 71.6245 75.1637C71.6187 76.0673 71.6143 76.7432 71.6143 77.1289C71.6143 78.0669 72.25 79.1693 74.04 78.8223C88.0659 74.1471 98.1719 60.9132 98.1719 45.3143C98.1733 25.8123 82.3608 10 62.8555 10ZM21.478 98.649H30.3604C30.4707 98.649 30.5762 98.6919 30.6538 98.7698C30.7319 98.8477 30.7754 98.9532 30.7754 99.0632V112.608C30.7754 112.686 30.7622 112.857 30.6411 112.923C30.6411 112.923 27.6934 115 22.8335 115C16.9648 115 10 113.193 10 101.065C10 88.9349 16.083 86.413 22.0137 86.413C27.1611 86.413 29.1982 87.5519 29.5327 87.791C29.5835 87.828 29.6245 87.8768 29.6523 87.9332C29.6802 87.9896 29.6938 88.0519 29.6924 88.1147L28.7017 92.311C28.7017 92.5402 28.4609 92.7975 28.2036 92.7195C27.3804 92.4646 26.0889 91.9366 23.0884 91.9366C19.6221 91.9366 15.9297 92.9635 15.9297 100.761C15.9297 108.557 19.4751 109.484 22.0117 109.484C24.1646 109.484 24.9424 109.218 24.9424 109.218V103.822H21.478C21.3682 103.822 21.2627 103.779 21.1846 103.701C21.1294 103.645 21.0913 103.576 21.0737 103.5C21.0664 103.47 21.063 103.439 21.063 103.407V99.0641C21.063 98.954 21.1069 98.8484 21.1846 98.7706C21.2627 98.6927 21.3682 98.649 21.478 98.649ZM70.7251 87.449H75.7275C75.7822 87.449 75.8359 87.4598 75.8862 87.4808C75.937 87.5018 75.9824 87.5326 76.021 87.5713C76.0591 87.6101 76.0894 87.656 76.1099 87.7065C76.1304 87.7571 76.1406 87.8112 76.1401 87.8657V114.04C76.1406 114.094 76.1304 114.148 76.1099 114.199C76.0894 114.249 76.0591 114.295 76.0205 114.334C75.9824 114.373 75.9365 114.404 75.8862 114.425C75.8555 114.438 75.8237 114.447 75.791 114.453C75.77 114.456 75.749 114.458 75.7275 114.458H70.7153C70.4863 114.458 70.3003 114.27 70.3003 114.04L70.3135 102.844H62.5171V114.04C62.5176 114.094 62.5073 114.148 62.4868 114.199C62.4663 114.249 62.436 114.295 62.3975 114.334C62.3594 114.373 62.3135 114.404 62.2632 114.425C62.2397 114.435 62.2158 114.443 62.1909 114.448C62.1626 114.454 62.1338 114.458 62.1045 114.458H57.103C56.8755 114.458 56.6895 114.27 56.6895 114.04V87.8666C56.689 87.812 56.6997 87.7578 56.7202 87.7073C56.7407 87.6567 56.771 87.6108 56.8096 87.572C56.8481 87.5332 56.8936 87.5024 56.9438 87.4813C56.9941 87.4602 57.0483 87.4492 57.103 87.449H62.1045C62.1587 87.4493 62.2129 87.4603 62.2632 87.4816C62.3135 87.5027 62.3589 87.5336 62.397 87.5724C62.4219 87.5977 62.4434 87.6259 62.4614 87.6565C62.4707 87.6729 62.479 87.6899 62.4863 87.7075C62.5068 87.7581 62.5171 87.812 62.5171 87.8666V97.5325H70.3135L70.312 87.8666C70.3115 87.812 70.3218 87.7578 70.3428 87.7073C70.3633 87.6567 70.3936 87.6108 70.4321 87.572C70.4702 87.5332 70.5161 87.5024 70.5664 87.4813C70.5972 87.4685 70.6294 87.4594 70.6621 87.4541C70.6831 87.4508 70.7041 87.4491 70.7251 87.449ZM33.3496 91.3008C33.3496 89.4994 34.7939 88.0442 36.5737 88.0442C38.3545 88.0442 39.7988 89.4994 39.7988 91.3008C39.7988 93.0996 38.3555 94.559 36.5737 94.559C34.7939 94.559 33.3496 93.0996 33.3496 91.3008ZM34.042 96.02H39.0278C39.0825 96.0203 39.1362 96.032 39.1865 96.0531C39.2368 96.0741 39.2822 96.1049 39.3208 96.1436C39.3594 96.1823 39.3896 96.2281 39.4102 96.2786C39.4204 96.3033 39.4282 96.3289 39.4331 96.3549C39.4385 96.3821 39.4414 96.4098 39.4414 96.4376V113.786C39.4414 114.212 39.3208 114.455 38.8271 114.455H34.3359C33.9258 114.455 33.6089 114.303 33.6089 113.795V96.4849C33.6089 96.2557 33.813 96.02 34.042 96.02ZM90.1851 96.0591H95.1494C95.2607 96.0591 95.3662 96.1033 95.4438 96.1814C95.5215 96.2594 95.5654 96.3649 95.5659 96.475L95.5684 114.045C95.5688 114.1 95.5581 114.154 95.5371 114.205C95.5166 114.256 95.4858 114.302 95.4478 114.34C95.4092 114.379 95.3633 114.41 95.3125 114.431C95.2964 114.438 95.2798 114.444 95.2627 114.448C95.2271 114.458 95.1904 114.464 95.1533 114.464L91.9492 114.478C91.7891 114.478 91.6421 114.364 91.584 114.251C91.5259 114.139 91.4014 113.185 91.4014 113.185C91.4014 113.185 88.7612 114.994 85.4873 114.994C81.4971 114.994 78.5957 113.721 78.5957 108.516V96.4774C78.5952 96.4189 78.6074 96.3618 78.6304 96.3093C78.6509 96.2627 78.6797 96.2197 78.7158 96.1829C78.7935 96.1045 78.8989 96.0599 79.0093 96.0591H84.0464C84.1011 96.0593 84.1548 96.0704 84.2051 96.0917C84.2554 96.1129 84.3008 96.1438 84.3394 96.1826C84.3774 96.2216 84.4077 96.2676 84.4282 96.3181C84.4487 96.3688 84.4595 96.4229 84.459 96.4774V107.669C84.459 109.422 84.9336 110.233 86.7227 110.233C88.5117 110.233 89.7734 109.311 89.7734 109.311V96.4774C89.7729 96.423 89.7832 96.3689 89.8037 96.3184C89.8242 96.2678 89.8545 96.2218 89.8926 96.183C89.9116 96.1637 89.9321 96.1464 89.9546 96.1312C89.9771 96.1158 90.001 96.1027 90.0264 96.0919C90.0767 96.0707 90.1304 96.0594 90.1851 96.0591ZM103.979 96.729C103.979 96.729 105.896 95.4713 108.715 95.4713C111.535 95.4705 115.71 96.5248 115.71 104.592C115.71 112.659 113.096 114.97 108.538 114.97C104.655 114.97 102.604 113.028 102.604 113.028C102.604 113.028 102.571 113.309 102.528 113.602C102.486 113.879 102.435 114.166 102.394 114.235C102.307 114.377 102.188 114.457 102.031 114.457H98.5513C98.4961 114.457 98.4424 114.446 98.3916 114.425C98.3413 114.404 98.2954 114.373 98.2568 114.335C98.2183 114.296 98.1875 114.25 98.167 114.199C98.146 114.149 98.1357 114.094 98.1357 114.04V87.8657C98.1357 87.811 98.146 87.7567 98.167 87.7062C98.1875 87.6555 98.2183 87.6094 98.2568 87.5706C98.2954 87.5319 98.3413 87.501 98.3916 87.48C98.4424 87.459 98.4961 87.4481 98.5513 87.4481H103.566C103.62 87.4485 103.674 87.4596 103.725 87.4807C103.751 87.4919 103.777 87.506 103.801 87.5226C103.821 87.5371 103.841 87.5535 103.858 87.5715C103.897 87.6102 103.927 87.6562 103.948 87.7067C103.959 87.7361 103.968 87.7666 103.973 87.7977C103.977 87.8202 103.979 87.8429 103.979 87.8657V96.729ZM103.867 109.384C103.867 109.384 105.035 110.165 106.756 110.218C109.166 110.29 109.942 109.402 109.942 104.906C109.942 100.642 108.22 100.102 106.432 100.262C105.02 100.39 103.867 101.095 103.867 101.095V109.384ZM52.5332 110.208C53.1084 110.208 53.668 110.12 53.8862 110.12C53.9941 110.121 54.0986 110.166 54.1763 110.243C54.2539 110.321 54.2979 110.426 54.2998 110.536L54.2964 114.076C54.2964 114.243 54.2109 114.396 54.0615 114.452C53.8154 114.543 52.3271 114.942 51.0845 114.942C48.3618 114.942 44.3271 114.377 44.3271 108.625V100.881H41.7056C41.6514 100.881 41.5972 100.87 41.5474 100.849C41.4971 100.828 41.4512 100.797 41.4131 100.758C41.3745 100.719 41.3442 100.673 41.3237 100.623C41.3105 100.59 41.3013 100.555 41.2964 100.52C41.2939 100.501 41.293 100.483 41.293 100.464V97.2452C41.293 97.1555 41.3223 97.0681 41.376 96.9962C41.4302 96.9244 41.5059 96.8719 41.5923 96.8468C41.7646 96.797 44.3271 96.1786 44.3271 96.1786V91.0568C44.3271 90.8666 44.4346 90.7787 44.6318 90.7787H49.7456C49.9629 90.7787 50.0591 90.8724 50.0591 91.0609L50.0649 96.0167H53.8174C53.8721 96.0167 53.9263 96.0275 53.9766 96.0485C54.0269 96.0695 54.0728 96.1001 54.1113 96.1389C54.1499 96.1776 54.1807 96.2235 54.2012 96.274C54.2222 96.3246 54.2324 96.3788 54.2324 96.4335V100.464C54.2329 100.519 54.2222 100.574 54.2017 100.624C54.1812 100.675 54.1504 100.721 54.1118 100.76C54.0732 100.799 54.0273 100.83 53.9771 100.851C53.9263 100.872 53.8721 100.883 53.8174 100.883H50.0649V108.243C50.0649 109.352 50.6904 110.208 52.5332 110.208Z" fill="#B5A4EE"/>
</svg>
