<svg width="125" height="125" viewBox="0 0 125 125" fill="none" xmlns="http://www.w3.org/2000/svg">
<path fill-rule="evenodd" clip-rule="evenodd" d="M5 0C2.23853 0 0 2.23853 0 5V120C0 122.761 2.23853 125 5 125H120C122.761 125 125 122.761 125 120V30C125 13.4314 111.569 0 95 0H5ZM31.7485 106.594L25 30.9092H99.1523L92.396 106.584L62.03 115L31.7485 106.594ZM80.9194 91.4454L82.885 73.1356L85.1306 47.9159L85.354 45.1274H38.8545L39.0762 47.9552L39.4993 52.9984L39.6858 55.1638H75.2087L74.3606 64.3639H51.0378L51.2595 66.8712L51.6826 71.5942L51.8682 73.5638H73.5361L72.4421 85.7322L62.0762 88.6553V88.6687L51.7529 85.9137L51.092 78.582H41.7742L43.0596 93.0856L62.061 98.2919L62.0762 98.2786L80.927 93.0135L80.9194 91.4454ZM62.0762 88.6687V88.682L62.0796 88.6696L62.0762 88.6687ZM77.0061 14.1819L82.9854 21.1855V24.2183H69.6035V20.0364H76.6206L69.6035 13.649V10H82.9854V14.1819H77.0061ZM61.4011 14.1819L67.0942 21.1855V24.2183H54.5488V20.0364H61.0164L54.5488 13.649V10H67.0942V14.1819H61.4011ZM45.3489 20.0364H52.0398V24.2183H40.3306V10H52.0398V14.1819H45.3489V20.0364Z" fill="#B5A4EE"/>
</svg>
